<svg xmlns="http://www.w3.org/2000/svg" viewBox="0 0 31.73 30.21"><defs><style>.cls-1{fill:#fff;}</style></defs><title>Recurso 5</title><g id="Capa_2" data-name="Capa 2"><g id="Capa_1-2" data-name="Capa 1"><g id="notifications-on"><path class="cls-1" d="M8.46,2.41,6.35.29A15.92,15.92,0,0,0,0,12.08H3A12.48,12.48,0,0,1,8.46,2.41Zm20.25,9.67h3A15.77,15.77,0,0,0,25.53.29L23.42,2.41A12.77,12.77,0,0,1,28.71,12.08Zm-3,.79a9.76,9.76,0,0,0-7.58-9.56v-1a2.28,2.28,0,0,0-4.56,0V3.35A9.68,9.68,0,0,0,6,12.83v8.34l-3,3V25.7H28.74V24.19l-3-3ZM15.86,30.21h.61a2.61,2.61,0,0,0,2.11-1.82,2.7,2.7,0,0,0,.31-1.21H12.84A3,3,0,0,0,15.86,30.21Z"/></g></g></g></svg>