<svg xmlns="http://www.w3.org/2000/svg" viewBox="0 0 42.24 32.98"><defs><style>.cls-1{fill:#fff;}</style></defs><title>Recurso 3</title><g id="Capa_2" data-name="Capa 2"><g id="Capa_1-2" data-name="Capa 1"><path class="cls-1" d="M39.23,10c-.17-1.28-.2-3.49,1-4.24,0,0,0,0,.05,0,1-.31,1.65-.75,1.12-1.34L27,0,3.73,3.24S1.06,3.62,1.3,7.76c.13,2.26.83,3.37,1.45,3.91l-1.91.58c-.53.59.15,1,1.12,1.34l.06.05c1.19.74,1.17,2.95,1,4.24C-1.27,19.09.27,19.49.27,19.49l.94.23c-.66.59-1.32,1.72-1.2,3.87C.25,27.73,2.44,28,2.44,28l15.25,5,23-5.58S42.23,27,38,25.79c-.18-1.28-.2-3.49,1-4.24l0-.05c1-.31,1.65-.75,1.12-1.34l-1-.3c.67-.4,1.67-1.45,1.83-4.18a4.84,4.84,0,0,0-1-3.63l2-.48S43.51,11.18,39.23,10ZM20,9.91l3.87-.8L36.93,6.43l2-.4a6.7,6.7,0,0,0-.5,3.7c0,.22,0,.43.08.59l-2.13.53L19.82,15Zm-16.62,4,2,.4,12.55,2.58,1.1.23h0l3.29.67.16,5.05-17-4.22-1.67-.42c0-.16,0-.36.07-.59A6.79,6.79,0,0,0,3.37,13.94ZM2.61,7.56a3.26,3.26,0,0,1,.57-2.3A1,1,0,0,1,3.94,5h.19l10,3.27,5,1.64L19,15,5,11l-.74-.21h-.1S2.68,10.65,2.61,7.56ZM17.72,30.79,2.93,26.64H2.84c-.06,0-1.45-.14-1.51-3.22A3.24,3.24,0,0,1,1.9,21.1a1,1,0,0,1,.75-.31h.19l15.05,4.91ZM37.1,25.55c0,.23,0,.44.07.6L18.54,30.78l.16-5,4-.82.59.14,2.2-.72,10.17-2.08,1.94-.41A6.79,6.79,0,0,0,37.1,25.55Zm1-6.85H38l-1.41.4L23.24,22.86l-.16-5.08,4.39-1.43L38.1,12.88a1.13,1.13,0,0,1,1,.29,3.35,3.35,0,0,1,.57,2.31C39.57,18.57,38.18,18.7,38.13,18.7Z"/></g></g></svg>